<?xml version="1.0" standalone="no"?>
<!DOCTYPE svg PUBLIC "-//W3C//DTD SVG 20010904//EN"
 "http://www.w3.org/TR/2001/REC-SVG-20010904/DTD/svg10.dtd">
<svg version="1.0" xmlns="http://www.w3.org/2000/svg"
 width="700.000000pt" height="700.000000pt" viewBox="0 0 700.000000 700.000000"
 preserveAspectRatio="xMidYMid meet">
<metadata>
Created by potrace 1.14, written by Peter Selinger 2001-2017
</metadata>
<g transform="translate(0.000000,700.000000) scale(0.100000,-0.100000)"
fill="#000000" stroke="none">
<path d="M3388 6923 c-46 -43 -118 -115 -158 -160 -72 -79 -75 -81 -129 -88
-1120 -131 -2105 -831 -2606 -1850 -505 -1026 -452 -2225 141 -3214 63 -106
161 -245 261 -371 98 -124 400 -422 533 -524 487 -376 1011 -599 1620 -688
132 -19 197 -22 445 -23 294 0 359 5 595 46 1113 193 2077 972 2509 2027 117
287 194 589 233 917 16 142 16 568 0 710 -77 654 -313 1227 -716 1735 -109
138 -368 401 -489 498 l-78 62 -32 -16 c-60 -31 -112 -81 -151 -148 -21 -36
-40 -66 -42 -66 -2 0 -24 40 -49 89 -58 113 -115 169 -222 222 -46 22 -83 41
-83 43 0 2 26 19 58 39 31 19 72 51 91 70 l33 35 -173 85 c-336 165 -690 273
-1038 317 l-94 12 -156 159 c-192 195 -181 192 -303 82z m-286 -1294 c4 -173
-31 -159 399 -159 426 0 389 -15 389 160 l0 120 224 0 225 0 25 -82 c116 -385
171 -699 197 -1134 23 -404 -28 -919 -132 -1326 -51 -200 -115 -389 -137 -406
-24 -18 -1575 -18 -1590 1 -17 20 -78 198 -117 341 -79 289 -128 611 -147 966
-27 498 47 1092 192 1543 l31 97 219 0 218 0 4 -121z m-1535 -405 c59 -113
110 -165 218 -222 124 -65 125 -77 9 -134 -115 -56 -171 -112 -223 -223 -35
-73 -44 -85 -65 -85 -21 0 -31 13 -66 84 -54 110 -110 166 -222 222 -116 58
-116 72 -3 130 112 57 164 107 215 206 24 46 47 89 53 96 20 26 43 6 84 -74z
m4121 -399 c54 -102 88 -135 183 -185 43 -22 81 -45 84 -49 11 -19 -8 -38 -82
-76 -98 -50 -142 -95 -187 -188 -52 -110 -69 -110 -120 -3 -44 92 -99 146
-192 192 -69 35 -91 55 -79 75 3 4 42 27 86 50 90 47 145 102 186 188 50 106
62 106 121 -4z m-1637 -2701 l116 -297 85 -37 c48 -20 116 -58 152 -84 l67
-48 -19 -31 c-79 -132 -125 -242 -151 -361 l-17 -80 -145 -2 c-108 -1 -165 -7
-229 -23 -107 -27 -266 -105 -347 -171 l-63 -51 -62 51 c-78 64 -238 143 -343
172 -64 17 -110 21 -232 22 l-151 1 -7 45 c-11 73 -63 219 -111 309 l-45 85
29 35 c37 46 138 115 200 137 l48 17 116 296 115 296 64 5 c35 3 233 6 439 8
l375 3 116 -297z"/>
<path d="M3380 5214 c-116 -22 -238 -81 -329 -157 -249 -210 -317 -567 -163
-862 25 -48 63 -97 122 -156 71 -72 101 -93 180 -132 209 -102 410 -102 620 0
80 39 108 59 180 132 140 141 203 292 203 486 0 307 -188 566 -483 665 -49 17
-95 23 -185 25 -66 2 -131 1 -145 -1z m313 -287 c277 -137 337 -499 120 -716
-259 -257 -693 -115 -755 248 -14 82 0 179 37 260 29 62 113 153 175 189 87
51 136 63 247 59 94 -3 109 -7 176 -40z"/>
</g>
</svg>
